<svg width="48" height="48" viewBox="0 0 48 48" fill="none" xmlns="http://www.w3.org/2000/svg">
<path d="M48 0H0V48H48V0Z" fill="#3a91e8"/>
<path d="M11.9043 24.0059H12.583C13.0094 23.9993 13.3447 23.887 13.5889 23.6689C13.833 23.4508 13.9551 23.1562 13.9551 22.7852C13.9551 21.9518 13.54 21.5352 12.71 21.5352C12.3193 21.5352 12.0068 21.6475 11.7725 21.8721C11.5413 22.0934 11.4258 22.388 11.4258 22.7559H10.5225C10.5225 22.1927 10.7275 21.7256 11.1377 21.3545C11.5511 20.9801 12.0752 20.793 12.71 20.793C13.3805 20.793 13.9062 20.9704 14.2871 21.3252C14.668 21.68 14.8584 22.1732 14.8584 22.8047C14.8584 23.1139 14.7575 23.4134 14.5557 23.7031C14.3571 23.9928 14.0853 24.2093 13.7402 24.3525C14.1309 24.4762 14.432 24.6813 14.6436 24.9678C14.8584 25.2542 14.9658 25.6042 14.9658 26.0176C14.9658 26.6556 14.7575 27.1618 14.3408 27.5361C13.9242 27.9105 13.3822 28.0977 12.7148 28.0977C12.0475 28.0977 11.5039 27.917 11.084 27.5557C10.6673 27.1943 10.459 26.7174 10.459 26.125H11.3672C11.3672 26.4993 11.4893 26.7988 11.7334 27.0234C11.9775 27.248 12.3047 27.3604 12.7148 27.3604C13.151 27.3604 13.4847 27.2464 13.7158 27.0186C13.9469 26.7907 14.0625 26.4635 14.0625 26.0371C14.0625 25.6237 13.9355 25.3063 13.6816 25.085C13.4277 24.8636 13.0615 24.7497 12.583 24.7432H11.9043V24.0059ZM20.8643 28H16.2061V27.3506L18.667 24.6162C19.0316 24.2028 19.2822 23.8675 19.4189 23.6104C19.5589 23.3499 19.6289 23.0814 19.6289 22.8047C19.6289 22.4336 19.5166 22.1292 19.292 21.8916C19.0674 21.654 18.7679 21.5352 18.3936 21.5352C17.9443 21.5352 17.5944 21.6637 17.3438 21.9209C17.0964 22.1748 16.9727 22.5296 16.9727 22.9854H16.0693C16.0693 22.3311 16.2793 21.8021 16.6992 21.3984C17.1224 20.9948 17.6872 20.793 18.3936 20.793C19.0544 20.793 19.5768 20.9671 19.9609 21.3154C20.3451 21.6605 20.5371 22.1211 20.5371 22.6973C20.5371 23.3971 20.0911 24.2305 19.1992 25.1973L17.2949 27.2627H20.8643V28ZM23.6865 24.6455L24.8584 22.7168H25.9131L24.1846 25.3291L25.9668 28H24.9219L23.7012 26.0225L22.4805 28H21.4307L23.2129 25.3291L21.4844 22.7168H22.5293L23.6865 24.6455ZM28.0957 24.0059H28.7744C29.2008 23.9993 29.5361 23.887 29.7803 23.6689C30.0244 23.4508 30.1465 23.1562 30.1465 22.7852C30.1465 21.9518 29.7314 21.5352 28.9014 21.5352C28.5107 21.5352 28.1982 21.6475 27.9639 21.8721C27.7327 22.0934 27.6172 22.388 27.6172 22.7559H26.7139C26.7139 22.1927 26.9189 21.7256 27.3291 21.3545C27.7425 20.9801 28.2666 20.793 28.9014 20.793C29.5719 20.793 30.0977 20.9704 30.4785 21.3252C30.8594 21.68 31.0498 22.1732 31.0498 22.8047C31.0498 23.1139 30.9489 23.4134 30.7471 23.7031C30.5485 23.9928 30.2767 24.2093 29.9316 24.3525C30.3223 24.4762 30.6234 24.6813 30.835 24.9678C31.0498 25.2542 31.1572 25.6042 31.1572 26.0176C31.1572 26.6556 30.9489 27.1618 30.5322 27.5361C30.1156 27.9105 29.5736 28.0977 28.9062 28.0977C28.2389 28.0977 27.6953 27.917 27.2754 27.5557C26.8587 27.1943 26.6504 26.7174 26.6504 26.125H27.5586C27.5586 26.4993 27.6807 26.7988 27.9248 27.0234C28.1689 27.248 28.4961 27.3604 28.9062 27.3604C29.3424 27.3604 29.6761 27.2464 29.9072 27.0186C30.1383 26.7907 30.2539 26.4635 30.2539 26.0371C30.2539 25.6237 30.127 25.3063 29.873 25.085C29.6191 24.8636 29.2529 24.7497 28.7744 24.7432H28.0957V24.0059ZM37.0557 28H32.3975V27.3506L34.8584 24.6162C35.223 24.2028 35.4736 23.8675 35.6104 23.6104C35.7503 23.3499 35.8203 23.0814 35.8203 22.8047C35.8203 22.4336 35.708 22.1292 35.4834 21.8916C35.2588 21.654 34.9593 21.5352 34.585 21.5352C34.1357 21.5352 33.7858 21.6637 33.5352 21.9209C33.2878 22.1748 33.1641 22.5296 33.1641 22.9854H32.2607C32.2607 22.3311 32.4707 21.8021 32.8906 21.3984C33.3138 20.9948 33.8786 20.793 34.585 20.793C35.2458 20.793 35.7682 20.9671 36.1523 21.3154C36.5365 21.6605 36.7285 22.1211 36.7285 22.6973C36.7285 23.3971 36.2826 24.2305 35.3906 25.1973L33.4863 27.2627H37.0557V28Z" fill="white"/>
</svg>
